<?xml version="1.0" encoding="utf-8"?>
<!-- Generator: Adobe Illustrator 16.0.3, SVG Export Plug-In . SVG Version: 6.00 Build 0)  -->
<!DOCTYPE svg PUBLIC "-//W3C//DTD SVG 1.1//EN" "http://www.w3.org/Graphics/SVG/1.1/DTD/svg11.dtd">
<svg version="1.1" id="Layer_1" xmlns="http://www.w3.org/2000/svg" xmlns:xlink="http://www.w3.org/1999/xlink" x="0px" y="0px"
	 width="1000px" height="1000px" viewBox="0 0 1000 1000" enable-background="new 0 0 1000 1000" xml:space="preserve">
<g>
	<path fill="#141414" d="M787.633,212.389C714.019,138.767,612.33,93.247,500.01,93.247c-112.312,0-214.024,45.52-287.615,119.142
		C138.766,285.982,93.245,387.676,93.245,500.002c0,112.323,45.521,214.012,119.149,287.625
		c73.592,73.609,175.304,119.132,287.615,119.132c112.322,0,214.009-45.522,287.623-119.132
		c73.606-73.613,119.124-175.302,119.124-287.625C906.757,387.676,861.239,285.982,787.633,212.389z M781.355,781.349
		c-72.014,71.999-171.489,116.545-281.346,116.545c-109.876,0-209.36-44.546-281.35-116.545
		c-72.003-71.992-116.543-171.479-116.543-281.347c0-109.863,44.54-209.342,116.543-281.351
		c71.989-71.994,171.474-116.527,281.35-116.527c109.858,0,209.332,44.531,281.346,116.527
		C853.347,290.66,897.9,390.139,897.9,500.002C897.9,609.869,853.347,709.356,781.355,781.349z M500.01,238.75
		c-72.143,0-137.461,29.253-184.746,76.511c-47.261,47.282-76.514,112.603-76.514,184.741c0,72.138,29.251,137.44,76.514,184.731
		c47.285,47.279,112.604,76.506,184.746,76.506c72.128,0,137.431-29.226,184.731-76.506
		c47.271-47.291,76.499-112.596,76.499-184.731c0-72.139-29.227-137.459-76.499-184.741
		C637.44,268.003,572.138,238.75,500.01,238.75z M678.463,678.461c-45.67,45.662-108.781,73.921-178.453,73.921
		c-69.717,0-132.784-28.259-178.468-73.921c-45.663-45.678-73.924-108.764-73.924-178.459c0-69.696,28.261-132.784,73.924-178.463
		c45.683-45.655,108.749-73.908,178.468-73.908c69.675,0,132.783,28.253,178.453,73.908
		c45.659,45.679,73.909,108.767,73.909,178.463C752.372,569.697,724.122,632.783,678.463,678.461z"/>
	<path fill="#141414" d="M500.002,266.525c-64.479,0-122.848,26.138-165.088,68.397c-42.254,42.231-68.392,100.615-68.392,165.078
		c0,64.471,26.138,122.833,68.392,165.081c42.24,42.261,100.608,68.392,165.088,68.392c64.466,0,122.831-26.131,165.085-68.392
		c42.252-42.248,68.381-100.61,68.381-165.081c0-64.463-26.129-122.847-68.381-165.078
		C622.833,292.663,564.468,266.525,500.002,266.525L500.002,266.525z M331.775,331.776c43.043-43.062,102.528-69.678,168.227-69.678
		c65.686,0,125.166,26.616,168.224,69.678c43.055,43.048,69.679,102.532,69.679,168.226c0,65.691-26.624,125.176-69.679,168.225
		C625.168,711.287,565.688,737.9,500.002,737.9c-65.699,0-125.186-26.613-168.227-69.674
		C288.724,625.178,262.1,565.693,262.1,500.002C262.1,434.309,288.723,374.824,331.775,331.776z"/>
	<path fill="#141414" d="M530.366,950.446l-13.586-0.03l-1.181-2.327c-2.186-6.804-8.45-11.379-15.579-11.379
		c-7.167,0-13.433,4.575-15.604,11.36l-0.751,2.346l-14.195,0.03c-9.087,0-10.787-0.319-21.831-2.299l-9.747-1.714l-0.331-2.447
		c-0.979-7.077-6.354-12.669-13.382-13.909c-7.191-1.245-14.053,2.268-17.347,8.487l-1.157,2.175l-11.523-2.012
		c-11.106-1.888-11.31-1.942-21.934-5.864l-10.915-4.017l0.101-2.445c0.266-7.146-4.068-13.592-10.763-16.023
		c-6.609-2.416-14.298-0.128-18.526,5.35l-1.5,1.944l-9.315-3.374c-12.276-4.404-12.493-4.52-23.729-11.04l-8.626-5.004l0.52-2.404
		c1.512-6.974-1.627-14.065-7.804-17.638c-6.057-3.491-14.065-2.606-19.201,2.039l-1.815,1.649l-8.58-4.936
		c-11.309-6.472-11.511-6.616-21.438-14.991l-7.621-6.42l0.926-2.272c2.695-6.619,0.827-14.153-4.647-18.73
		c-5.315-4.484-13.409-4.999-19.243-1.313l-2.069,1.303l-5.274-4.418c-12.313-10.311-12.53-10.521-22.873-22.891l-4.348-5.176
		l1.297-2.07c3.811-6.045,3.291-13.801-1.297-19.258c-4.497-5.352-12.302-7.275-18.729-4.644l-2.277,0.926l-6.441-7.65
		c-8.388-9.902-8.525-10.104-15.019-21.455l-4.895-8.531l1.641-1.816c4.803-5.296,5.615-12.997,2.045-19.191
		c-3.508-6.044-10.801-9.277-17.637-7.835l-2.393,0.533l-4.992-8.599c-6.543-11.247-6.646-11.476-11.057-23.698l-3.378-9.354
		l1.942-1.501c5.644-4.389,7.791-11.823,5.327-18.537c-2.341-6.451-8.517-10.781-15.382-10.781l-2.461,0.085l-1.45-2.286
		l-3.179-8.627c-3.925-10.604-3.988-10.821-5.868-21.946l-2.01-11.511l2.174-1.14c6.315-3.329,9.722-10.294,8.487-17.33
		c-1.245-7.043-6.826-12.419-13.89-13.391l-2.426-0.333l-1.756-9.731c-2.313-12.842-2.325-13.068-2.287-26.052l0.014-9.989
		l2.35-0.745c6.787-2.19,11.358-8.448,11.358-15.597c0-7.149-4.571-13.412-11.358-15.602l-2.35-0.743l-0.014-10.007
		c-0.038-12.967-0.025-13.207,2.287-26.063l1.728-9.701l2.44-0.345c7.075-0.96,12.657-6.335,13.902-13.367
		c1.233-7.047-2.172-14.011-8.487-17.342l-2.175-1.144l2.011-11.513c1.878-11.121,1.942-11.323,5.867-21.918l4.019-10.946
		l2.438,0.099c0.025,0,0.025,0,0.042,0c7.469,0,13.645-4.331,15.973-10.768c2.464-6.736,0.317-14.181-5.327-18.554l-1.942-1.504
		l3.379-9.322c4.41-12.25,4.514-12.481,11.044-23.698l4.992-8.612l2.404,0.516c6.81,1.485,14.13-1.771,17.638-7.834
		c3.57-6.176,2.758-13.876-2.046-19.182l-1.64-1.815l4.945-8.605c6.454-11.297,6.605-11.497,14.995-21.417l6.415-7.621l2.277,0.927
		c6.429,2.618,14.232,0.718,18.718-4.646c4.6-5.462,5.119-13.195,1.309-19.242l-1.297-2.075l4.462-5.314
		c10.278-12.286,10.468-12.481,22.833-22.832l5.2-4.343l2.069,1.315c5.834,3.66,13.916,3.144,19.243-1.315
		c5.475-4.608,7.343-12.137,4.647-18.746l-0.926-2.274l7.621-6.418c9.916-8.394,10.13-8.52,21.428-14.992l8.592-4.93l1.814,1.637
		c5.109,4.653,13.114,5.535,19.202,2.046c6.177-3.558,9.315-10.647,7.815-17.64l-0.521-2.386l8.64-5.021
		c11.211-6.521,11.428-6.618,23.677-11.036l9.341-3.375l1.5,1.944c4.23,5.48,11.917,7.752,18.526,5.353
		c6.71-2.449,11.043-8.883,10.763-16.014l-0.101-2.458l10.951-4.021c10.601-3.926,10.802-3.971,21.922-5.874l11.499-2l1.159,2.173
		c3.292,6.232,10.153,9.723,17.345,8.492c7.028-1.247,12.402-6.832,13.382-13.911l0.331-2.434l9.798-1.742
		c11.015-1.988,12.707-2.287,21.807-2.287l14.17,0.023l0.75,2.347c2.172,6.79,8.438,11.368,15.592,11.368
		c7.142,0,13.419-4.578,15.593-11.368l0.748-2.347l14.144-0.023c9.126,0,10.814,0.301,21.846,2.287l9.784,1.742l0.346,2.434
		c0.964,7.079,6.325,12.664,13.366,13.911c7.192,1.23,14.068-2.262,17.335-8.492l1.131-2.173l11.513,2
		c11.135,1.891,11.335,1.948,21.946,5.874l10.928,4.021l-0.101,2.439c-0.252,7.147,4.067,13.583,10.789,16.032
		c6.593,2.412,14.296,0.128,18.542-5.353l1.497-1.944l9.354,3.391c12.235,4.402,12.455,4.502,23.698,11.057l8.576,4.974l-0.52,2.398
		c-1.5,6.991,1.639,14.083,7.842,17.639c6.036,3.501,14.066,2.606,19.187-2.045l1.822-1.637l8.589,4.939
		c11.31,6.464,11.5,6.612,21.439,14.996l7.595,6.405l-0.914,2.273c-2.694,6.624-0.836,14.14,4.627,18.746
		c5.35,4.459,13.404,4.976,19.25,1.315l2.101-1.315l5.271,4.445c12.301,10.276,12.506,10.491,22.872,22.873l4.334,5.161l-1.32,2.087
		c-3.798,6.047-3.268,13.78,1.334,19.243c4.484,5.362,12.289,7.264,18.706,4.645l2.287-0.927l6.404,7.621
		c8.412,9.921,8.541,10.119,15.034,21.444l4.933,8.563l-1.667,1.83c-4.801,5.287-5.617,13.006-2.058,19.182
		c3.519,6.063,10.826,9.32,17.679,7.834l2.386-0.515l4.958,8.555c6.541,11.263,6.646,11.494,11.067,23.715l3.393,9.361l-1.933,1.486
		c-5.665,4.405-7.814,11.855-5.365,18.559c2.341,6.45,8.531,10.78,15.379,10.78l2.468-0.099l1.474,2.3l3.15,8.624
		c3.952,10.618,3.994,10.82,5.898,21.939l1.993,11.513l-2.173,1.145c-6.316,3.33-9.733,10.293-8.49,17.341
		c1.247,7.032,6.839,12.409,13.917,13.368l2.416,0.343l1.754,9.818c2.3,12.783,2.312,13.01,2.271,26.074l-0.012,9.88l-2.351,0.743
		c-6.786,2.189-11.358,8.452-11.358,15.602c0,7.147,4.572,13.426,11.358,15.598l2.351,0.745l0.012,9.891
		c0.038,13.052,0.028,13.283-2.271,26.06l-1.74,9.822l-2.43,0.332c-7.089,0.973-12.683,6.348-13.917,13.392
		c-1.229,7.034,2.173,14,8.479,17.329l2.172,1.141l-1.995,11.555c-1.891,11.097-1.944,11.308-5.896,21.945l-3.988,10.878
		l-2.442-0.081h-0.026c-7.484,0-13.66,4.325-16,10.764c-2.448,6.713-0.301,14.149,5.354,18.536l1.942,1.502l-3.393,9.367
		c-4.422,12.226-4.526,12.454-11.079,23.721l-4.958,8.563l-2.391-0.533c-6.82-1.441-14.144,1.792-17.662,7.836
		c-3.558,6.192-2.743,13.896,2.058,19.19l1.667,1.816l-4.935,8.557c-6.491,11.323-6.62,11.526-15.005,21.441l-6.43,7.639
		l-2.288-0.926c-6.417-2.619-14.232-0.706-18.706,4.645c-4.601,5.458-5.132,13.211-1.335,19.257l1.321,2.07l-4.342,5.176
		c-10.356,12.371-10.577,12.581-22.876,22.891l-5.259,4.429l-2.1-1.313c-5.848-3.686-13.917-3.17-19.25,1.313
		c-5.479,4.589-7.334,12.111-4.627,18.713l0.929,2.29l-7.639,6.42c-9.924,8.377-10.13,8.521-21.451,15.008l-8.55,4.931l-1.821-1.659
		c-5.121-4.645-13.126-5.556-19.188-2.04c-6.203,3.572-9.342,10.666-7.842,17.639l0.521,2.403l-8.613,5.004
		c-11.235,6.521-11.437,6.637-23.737,11.052l-9.276,3.362l-1.497-1.943c-4.261-5.477-11.975-7.754-18.542-5.35
		c-6.722,2.443-11.043,8.877-10.764,16.007l0.075,2.462l-10.904,4.016c-10.623,3.922-10.836,3.978-21.957,5.876l-11.524,2.001
		l-1.131-2.175c-3.28-6.233-10.218-9.767-17.321-8.487c-7.055,1.24-12.428,6.832-13.38,13.896l-0.346,2.424l-9.771,1.752
		C541.066,950.187,539.605,950.446,530.366,950.446z M521.114,943.701l9.252,0.01c8.643,0,9.801-0.194,20.806-2.185l5.096-0.901
		c2.145-8.808,9.285-15.568,18.41-17.171c9.213-1.643,18.16,2.403,23.166,9.836l6.853-1.19c10.61-1.814,10.61-1.814,20.737-5.558
		l6.48-2.391c0.609-9.044,6.47-16.939,15.161-20.115c8.465-3.066,18.336-0.696,24.513,5.681l4.828-1.759
		c11.833-4.23,11.833-4.23,22.621-10.521l4.537-2.632c-0.98-9.007,3.404-17.796,11.409-22.414
		c7.804-4.521,18.007-3.903,25.148,1.303l4.449-2.549c10.892-6.248,10.892-6.248,20.459-14.311l3.992-3.375
		c-2.528-8.706,0.264-18.126,7.343-24.074c6.874-5.775,17.018-6.963,25.011-3.075l1.614-1.358
		c11.97-10.021,11.97-10.021,22.033-22.043l1.283-1.53c-3.987-8.151-2.858-17.913,3.076-24.991
		c5.783-6.91,15.504-9.803,24.056-7.365l3.383-3.981c8.067-9.555,8.067-9.555,14.317-20.46l2.544-4.451
		c-5.351-7.333-5.936-17.142-1.335-25.144c4.537-7.818,13.446-12.413,22.458-11.421l2.579-4.463
		c6.323-10.835,6.323-10.835,10.534-22.619l1.777-4.883c-6.53-6.311-8.805-15.86-5.67-24.536
		c3.154-8.593,11.098-14.522,20.13-15.153l2.365-6.433c3.762-10.149,3.762-10.149,5.564-20.746l1.184-6.89
		c-7.524-5.062-11.424-14.079-9.835-23.172c1.599-9.109,8.361-16.241,17.181-18.413l0.915-5.146
		c2.211-12.293,2.211-12.293,2.159-24.848l-0.013-5.149c-8.271-3.671-13.702-11.862-13.702-21.113
		c0-9.236,5.429-17.44,13.702-21.114l0.013-5.132c0.05-12.555,0.05-12.555-2.159-24.863l-0.929-5.147
		c-8.794-2.174-15.553-9.308-17.167-18.41c-1.602-9.094,2.311-18.115,9.847-23.175l-1.181-6.837
		c-1.804-10.616-1.804-10.616-5.566-20.735l-2.388-6.497c-9.022-0.628-16.964-6.563-20.12-15.156
		c-3.135-8.675-0.861-18.24,5.67-24.528l-1.777-4.905c-4.209-11.76-4.209-11.76-10.534-22.604l-2.579-4.444
		c-8.938,0.888-17.921-3.618-22.434-11.438c-4.625-8.007-4.027-17.813,1.311-25.145l-2.544-4.459
		c-6.25-10.898-6.25-10.898-14.317-20.446l-3.383-3.992c-8.539,2.449-18.26-0.456-24.056-7.356
		c-5.946-7.068-7.063-16.834-3.076-24.99l-1.27-1.516c-10.063-12.037-10.063-12.037-22.022-22.046l-1.639-1.371
		c-7.967,3.867-18.121,2.687-25.011-3.075c-7.063-5.935-9.859-15.358-7.343-24.075l-3.979-3.351
		c-9.542-8.076-9.542-8.076-20.447-14.308l-4.474-2.571c-7.143,5.218-17.333,5.831-25.146,1.314
		c-8.006-4.619-12.393-13.408-11.41-22.43l-4.5-2.606c-10.803-6.29-10.803-6.29-22.596-10.531l-4.893-1.775
		c-6.177,6.38-16.048,8.739-24.513,5.66c-8.68-3.156-14.552-11.048-15.173-20.095l-6.493-2.403
		c-10.104-3.747-10.104-3.747-20.729-5.546l-6.836-1.188c-5.006,7.433-13.901,11.459-23.166,9.846
		c-9.113-1.598-16.241-8.358-18.41-17.179l-5.128-0.902c-10.973-1.975-12.123-2.188-20.648-2.188l-9.379,0.016
		c-3.672,8.304-11.854,13.71-21.104,13.71c-9.24,0-17.447-5.407-21.122-13.71l-9.39-0.016c-8.49,0-9.645,0.213-20.614,2.188
		l-5.131,0.914c-2.174,8.81-9.316,15.556-18.415,17.168c-9.278,1.65-18.174-2.413-23.181-9.846l-6.848,1.188
		c-10.6,1.811-10.6,1.811-20.701,5.546l-6.52,2.403c-0.609,9.049-6.454,16.94-15.148,20.096c-8.463,3.09-18.353,0.72-24.528-5.661
		l-4.865,1.762c-11.781,4.245-11.781,4.245-22.559,10.523l-4.547,2.628c0.951,9.021-3.429,17.811-11.426,22.431
		c-7.814,4.504-17.979,3.89-25.147-1.315l-4.471,2.571c-10.894,6.232-10.894,6.232-20.425,14.296l-3.977,3.362
		c2.489,8.704-0.308,18.141-7.382,24.076c-6.863,5.762-17.029,6.942-24.971,3.074l-1.551,1.267
		c-12.02,10.08-12.02,10.08-21.997,22.005l-1.397,1.671c3.978,8.135,2.858,17.9-3.076,24.979c-5.793,6.9-15.504,9.835-24.082,7.355
		l-3.34,3.992c-8.081,9.549-8.081,9.549-14.296,20.416l-2.595,4.491c5.349,7.332,5.935,17.138,1.309,25.145
		c-4.511,7.818-13.471,12.382-22.416,11.438l-2.616,4.503c-6.291,10.796-6.291,10.796-10.536,22.588l-1.766,4.874
		c6.556,6.277,8.821,15.841,5.67,24.517c-3.114,8.578-11.082,14.517-20.117,15.156l-2.386,6.507
		c-3.751,10.11-3.751,10.11-5.544,20.714l-1.196,6.849c7.537,5.061,11.436,14.067,9.851,23.175
		c-1.614,9.104-8.376,16.236-17.182,18.41l-0.9,5.031c-2.226,12.384-2.226,12.384-2.175,24.852l0.012,5.26
		c8.289,3.674,13.714,11.878,13.714,21.114c0,9.251-5.427,17.442-13.714,21.113l-0.012,5.245
		c-0.039,12.481-0.039,12.481,2.175,24.818l0.9,5.078c8.807,2.172,15.567,9.304,17.182,18.413
		c1.599,9.094-2.313,18.111-9.851,23.171l1.196,6.851c1.793,10.605,1.793,10.605,5.553,20.726l2.377,6.493
		c9.035,0.63,17.003,6.56,20.117,15.153c3.177,8.66,0.888,18.226-5.67,24.536l1.778,4.87c4.232,11.783,4.232,11.783,10.535,22.606
		l2.605,4.489c9.059-0.946,17.905,3.604,22.416,11.439c4.627,7.972,4.04,17.792-1.309,25.127l2.553,4.437
		c6.241,10.903,6.241,10.903,14.313,20.436l3.366,4.019c8.592-2.458,18.289,0.455,24.081,7.365
		c5.936,7.078,7.055,16.84,3.076,24.991l1.282,1.53c10.067,12.021,10.067,12.021,22.022,22.043l1.643,1.358
		c7.941-3.878,18.107-2.688,24.97,3.075c7.076,5.937,9.871,15.354,7.383,24.074l3.964,3.359c9.561,8.077,9.561,8.077,20.459,14.311
		l4.449,2.563c7.168-5.206,17.348-5.823,25.146-1.304c7.997,4.601,12.377,13.391,11.427,22.413l4.51,2.632
		c10.815,6.278,10.815,6.278,22.62,10.523l4.841,1.758c6.177-6.375,16.051-8.748,24.528-5.68
		c8.678,3.176,14.524,11.071,15.148,20.115l6.468,2.391c10.128,3.742,10.128,3.742,20.727,5.558l6.874,1.19
		c5.006-7.433,13.901-11.479,23.181-9.836c9.099,1.601,16.241,8.363,18.414,17.171l5.068,0.9c11.005,1.991,12.175,2.186,20.65,2.186
		l9.417-0.023c3.673-8.282,11.869-13.702,21.122-13.702C509.26,929.986,517.43,935.405,521.114,943.701z"/>
	<g>
		<path fill="#141414" d="M163.226,623.563l0.073,0.163l61.966-2.115l-43.052,44.577l0.073,0.161l55.117-12.049l1.656,3.721
			l-68.844,14.962l45.506-47.115l-65.502,2.228l57.172-41.166l1.657,3.72L163.226,623.563z"/>
		<path fill="#141414" d="M162.131,510.482c18.602-2.527,36.085,11.093,38.609,29.688c2.523,18.599-10.692,36.387-29.289,38.911
			c-18.604,2.529-36.076-11.004-38.612-29.69C130.313,530.795,143.531,513.004,162.131,510.482z M170.875,574.874
			c16.319-2.214,28.159-17.674,25.919-34.166c-2.229-16.402-17.862-28.22-34.093-26.017c-16.317,2.216-28.146,17.761-25.917,34.165
			C139.024,565.35,154.561,577.088,170.875,574.874z"/>
		<path fill="#141414" d="M206.339,427.471l-66.725,47.31l56.821,7.892l-0.583,4.208l-66.996-9.304l66.287-47.373l-57.699-8.015
			l0.583-4.208L206.339,427.471z"/>
		<path fill="#141414" d="M154.531,378.393l22.654,8.686l9.632-25.135l3.726,1.427l-9.639,25.133l28.522,10.94l9.892-25.797
			l3.719,1.428l-11.41,29.762l-62.338-23.902l11.408-29.76l3.723,1.424L154.531,378.393z"/>
		<path fill="#141414" d="M172.659,325.417l2.464-3.994l39.102,1.064l-18.436-34.5l2.47-3.988l20.849,39.009l24.245,14.988
			l-2.235,3.615l-24.247-14.987L172.659,325.417z"/>
		<path fill="#141414" d="M292.018,277.964l-42.883-51.145l10.244-8.59c3.863-3.238,7.753-6.041,13.079-5.885
			c5.397,0.095,9.737,2.929,13.149,6.997c3.923,4.679,4.991,9.677,2.854,15.393c7.391-3.998,15.931-2.494,21.39,4.017
			c3.467,4.137,5.036,9.178,4.124,14.562c-1.037,6.067-4.324,9.863-8.867,13.674L292.018,277.964z M271.842,247.287l5.628-4.721
			c3.462-2.9,6.413-5.027,7.568-9.575c1.152-4.551-0.127-7.866-3.084-11.395c-2.788-3.324-6.81-5.5-11.258-4.887
			c-3.942,0.536-7.132,3.209-10.118,5.711l-5.626,4.721L271.842,247.287z M292.716,272.184l7.799-6.54
			c3.592-3.016,7.437-6.008,8.797-10.727c1.354-4.721,0.583-9.499-2.602-13.3c-3.127-3.729-8.089-5.926-12.968-4.72
			c-4.431,1.054-8.763,4.568-12.154,7.416l-7.188,6.025L292.716,272.184z"/>
		<path fill="#141414" d="M334.294,218.956l2.475,23.582l-3.823,2.047l-7.877-74.018l57.139,47.654l-3.828,2.046l-18.245-15.141
			L334.294,218.956z M330.163,180.092l3.654,34.6l23.03-12.324L330.163,180.092z"/>
		<path fill="#141414" d="M435.629,147.375c-6.572-4.766-16.396-6.561-24.357-4.454c-16.096,4.264-25.693,21.646-21.502,37.484
			c1.994,7.535,7.13,13.779,13.931,17.658c6.753,3.709,15.456,5.438,23.079,3.418c7.448-1.973,15.801-8.49,19.052-15.579l1.5,5.649
			c-4.744,6.661-11.396,11.629-19.359,13.736c-17.979,4.762-37.619-6.073-42.398-24.137c-4.853-18.322,6.613-37.299,24.938-42.15
			c7.791-2.063,16.482-1.066,23.626,2.723L435.629,147.375z"/>
		<path fill="#141414" d="M504.21,128.521l5.665-0.214l-31.434,33.357l36.001,33.282l-5.574,0.21l-33.239-30.636l-1.702,1.835
			l1.14,30.087l-4.246,0.158l-2.536-66.714l4.25-0.162l1.184,31.146L504.21,128.521z"/>
		<path fill="#141414" d="M637.51,190.898c-2.469,8.041-5.954,14.626-13.61,18.901c-8.22,4.557-18.52,5.255-27.428,2.313
			c-17.57-5.805-27.644-25.544-21.866-43.027c6.001-18.155,25.71-27.864,43.869-21.863c11.513,3.805,18.953,12.602,22.599,23.876
			l-4.14,1.521c-2.855-10.267-9.708-18.311-19.965-21.698c-15.467-5.113-33.217,4.033-38.244,19.247
			c-5.168,15.633,3.443,33.025,19.244,38.245c6.81,2.251,14.367,1.672,20.967-0.807c6.992-2.82,10.759-7.448,13.291-14.258
			l-22.695-7.503l1.248-3.781L637.51,190.898z"/>
		<path fill="#141414" d="M714.244,196.273l3.591,2.276l-22.302,35.138c-3.656,5.756-6.785,10.69-13.588,12.982
			c-6.563,1.917-13.819,0.459-19.502-3.148c-5.686-3.607-10.093-9.553-11.152-16.308c-0.822-7.133,2.309-12.063,5.963-17.821
			l22.301-35.139l3.588,2.276l-21.636,34.095c-3.226,5.082-6.644,10.466-6.103,16.055c0.489,5.344,4.837,10.726,9.173,13.477
			c4.338,2.751,11.055,4.393,16.099,2.56c5.291-1.888,8.707-7.269,11.934-12.354L714.244,196.273z"/>
		<path fill="#141414" d="M720.105,258.566l-21.846,9.218l-3.073-3.067l68.554-29.04l-29.015,68.531l-3.07-3.066l9.193-21.864
			L720.105,258.566z M756.104,243.324l-32.056,13.548l18.489,18.461L756.104,243.324z"/>
		<path fill="#141414" d="M763.023,345.738l-2.716-4.046l14.117-35.698l-1.182-1.766l-26.252,17.61l-2.372-3.527l55.447-37.195
			l4.638,6.914c3.008,4.482,5.895,8.947,5.69,14.522c-0.132,5.846-3.457,10.421-8.165,13.579
			c-9.631,6.462-19.122,3.126-25.142-6.166L763.023,345.738z M779.564,306.493c2.316,3.456,4.784,6.813,9.083,7.981
			c3.909,1.216,8.056,0.247,11.365-1.975c4.117-2.763,6.953-7.434,6.054-12.589c-0.577-3.88-3.237-7.528-5.41-10.768l-1.528-2.278
			l-22.574,15.144L779.564,306.493z"/>
		<path fill="#141414" d="M795.393,360.614l-23.713,0.19l-1.669-4.007l74.439-0.695l-52.953,52.275l-1.668-4.007l16.835-16.7
			L795.393,360.614z M834.477,360.259l-34.795,0.3l10.049,24.113L834.477,360.259z"/>
		<path fill="#141414" d="M802.867,484.369l50.722-64.188l-56.758,8.418l-0.624-4.205l66.921-9.927l-50.286,64.126l57.634-8.552
			l0.621,4.205L802.867,484.369z"/>
		<path fill="#141414" d="M803.043,522.564l0.293-4.238l62.634,4.353l1.198-17.227l3.979,0.277l-2.693,38.692l-3.977-0.274
			l1.199-17.226L803.043,522.564z"/>
		<path fill="#141414" d="M858.712,576.304l-23.554-5.809l-6.447,26.136l-3.866-0.951l6.446-26.136l-29.66-7.313l-6.612,26.82
			l-3.868-0.954l7.627-30.947l64.821,15.98l-7.633,30.948l-3.868-0.954L858.712,576.304z"/>
		<path fill="#141414" d="M839.106,639.26l-22.128-9.962l-11.05,24.555l-3.633-1.636l11.049-24.553l-27.861-12.537l-11.341,25.193
			l-3.634-1.636l13.086-29.071l60.887,27.403l-13.083,29.075l-3.633-1.637L839.106,639.26z"/>
	</g>
	<g>
		<path fill="#141414" d="M529.627,791.698c-14.168,1.555-17.78,21.37-16.631,31.843c1.316,11.968,9.078,29.906,23.248,28.35
			c14.165-1.555,17.847-20.755,16.529-32.721C551.623,808.695,543.793,790.141,529.627,791.698z"/>
		<path fill="#141414" d="M467.072,791.499c-14.188-1.385-21.796,17.265-22.818,27.754c-1.172,11.982,2.738,31.14,16.932,32.527
			c14.189,1.389,21.736-16.649,22.905-28.631C485.113,812.657,481.264,792.886,467.072,791.499z"/>
		<path fill="#141414" d="M578.49,782.15c-4.929,1.733-7.811,7.155-6.048,12.167c1.703,4.848,7.341,7.275,12.27,5.542
			c4.929-1.73,7.811-7.155,6.108-11.999C589.062,782.847,583.417,780.419,578.49,782.15z"/>
		<path fill="#141414" d="M617.74,812.654c-4.929,1.73-7.808,7.157-6.046,12.171c1.704,4.844,7.341,7.271,12.27,5.541
			c4.928-1.729,7.813-7.154,6.108-12.002C628.314,813.353,622.669,810.923,617.74,812.654z"/>
		<path fill="#141414" d="M681.59,681.587c-46.476,46.48-110.66,75.222-181.582,75.222c-70.909,0-135.123-28.741-181.595-75.222
			L215.518,784.486c72.816,72.811,173.385,117.835,284.49,117.835c111.103,0,211.658-45.026,284.485-117.835L681.59,681.587z
			 M391.424,839.799l-4.019-1.374l20.31-59.384l-9.967-3.409l3.215-3.112l12.062,4.124L391.424,839.799z M488.32,823.558
			c-1.345,13.748-10.604,33.843-27.525,32.188c-16.921-1.653-22.111-23.159-20.769-36.906c1.36-13.923,10.954-32.919,27.437-31.306
			C483.94,789.143,489.68,809.631,488.32,823.558z M536.68,855.848c-16.896,1.857-26.398-18.116-27.904-31.846
			c-1.529-13.903,3.958-34.455,20.418-36.265c16.455-1.808,26.278,17.063,27.807,30.962
			C558.507,832.431,553.572,853.993,536.68,855.848z M585.946,803.366c-7.019,2.469-14.517-0.715-17.012-7.815
			c-2.554-7.27,1.223-14.416,8.322-16.907c7.101-2.495,14.519,0.713,17.07,7.985C596.823,793.727,592.965,800.905,585.946,803.366z
			 M592.217,844.711l14.654-77.415l3.254,0.452l-14.793,77.562L592.217,844.711z M625.196,833.875
			c-7.015,2.467-14.519-0.717-17.01-7.816c-2.553-7.271,1.221-14.417,8.321-16.914c7.104-2.494,14.52,0.72,17.072,7.987
			C636.077,824.232,632.219,831.406,625.196,833.875z"/>
	</g>
	<g>
		<path fill="#141414" d="M333.344,574.68c0,5.89,4.796,10.682,10.698,10.682c5.897,0,10.695-4.792,10.695-10.682
			c0-5.901-4.797-10.701-10.695-10.701C338.14,563.979,333.344,568.779,333.344,574.68z"/>
		<path fill="#141414" d="M502.684,620.061c61.902,0,115.666-23.816,115.666-52.013v-70.152l-103.271,48.334
			c-7.878,3.718-20.271,3.229-29.903-1.259l-98.144-45.612v68.689C387.031,596.244,440.789,620.061,502.684,620.061z"/>
		<path fill="#141414" d="M685.497,446.216c-0.108-0.367-0.439-1.262-1.116-1.576l-175.006-81.503
			c-5.393-2.514-12.015-3.055-15.751-1.295L315.72,445.739c-0.133,0.4-0.209,1.261,0.083,2.198c0.229,0.756,0.642,1.347,1.068,1.537
			l33.686,15.145l146.45-30.204c4.156-0.836,8.231,1.82,9.092,5.982c0.858,4.164-1.822,8.233-5.985,9.093l-126.245,26.036
			l118.123,55.51c5.28,2.459,12.06,3.015,15.737,1.277l177.828-83.859C685.691,448.032,685.781,447.156,685.497,446.216z"/>
		<path fill="#141414" d="M372.96,687.522c3.155-7.583-1.933-14.498-12.722-27.545c-1.208-1.463-2.448-2.963-3.698-4.499
			c0.555,6.233,0.072,12.134-2.689,17.469C359.961,678.122,366.32,683.005,372.96,687.522z"/>
		<path fill="#141414" d="M500.01,273.347c-124.855,0-226.657,101.82-226.657,226.655c0,63.152,26.083,120.389,67.997,161.556
			c0.311-3.964-0.655-9.493-2.465-18.136c-2.311-11.032-5.188-24.771-4.897-42.395c0.012-0.758,0.164-1.467,0.378-2.15
			c-9.605-3.853-16.415-13.239-16.415-24.196c0-12.176,8.394-22.4,19.686-25.264c0.134-8.012-0.121-16.204-0.369-24.133
			c-0.563-17.84-1.107-34.842,2.755-48.527l-29.462-13.244c-6.227-2.799-10.284-9.356-10.348-16.708
			c-0.057-6.619,3.246-12.305,8.622-14.832l178.22-84.047c7.998-3.782,19.045-3.298,28.818,1.266l174.997,81.498
			c6.178,2.871,10.187,9.448,10.205,16.753c0.02,6.604-3.264,12.253-8.555,14.743l-60.64,28.505
			c0.049,0.339-0.083,0.672-0.083,1.025v76.339c0,37.796-57.124,67.402-129.787,67.402c-72.657,0-129.773-29.607-129.773-67.402
			v-72.865c0-0.988,0.592-1.932,0.933-2.804l-19.136-9.083c-2.543,11.136-2.444,25.969-1.949,41.501
			c0.26,8.243-0.022,16.766-0.022,25.279c0,0.047,0,0.085,0,0.134c10.759,3.668,17.59,13.236,17.59,24.468
			c0,12.579-8.731,23.112-20.605,25.545c0.04,0.344,0.213,0.68,0.209,1.036c-0.294,21.07,11.991,35.859,22.779,48.905
			c11.03,13.336,23.28,28.124,14.01,45.581c33.515,19.604,72.446,30.905,113.947,30.905c124.826,0,226.647-101.814,226.647-226.648
			S624.838,273.347,500.01,273.347z"/>
	</g>
</g>
</svg>
